<svg width="344" height="393" viewBox="0 0 344 393" fill="none" xmlns="http://www.w3.org/2000/svg">
<g clip-path="url(#clip0_653_3)">
<path d="M295.752 107.094C269.425 80.315 235.593 63.442 198.934 58.487C199.894 57.157 200.837 55.786 201.756 54.382C203.322 51.991 203.722 49.02 202.843 46.3C201.964 43.58 199.902 41.404 197.233 40.381C196.752 40.197 194.144 39.236 190.022 38.421C189.413 38.301 188.802 38.242 188.198 38.241C187.628 38.046 187.031 37.904 186.414 37.82C183.916 37.48 181.375 37.292 178.864 37.26C178.825 37.259 178.785 37.259 178.745 37.259C178.144 37.259 177.553 37.316 176.977 37.425C176.514 37.355 176.043 37.319 175.566 37.319C175.406 37.319 175.247 37.323 175.087 37.331C173.226 37.425 171.364 37.608 169.552 37.875C168.825 37.982 168.123 38.171 167.456 38.435C167.434 38.435 167.411 38.435 167.389 38.435C166.694 38.435 165.994 38.512 165.299 38.669C163.779 39.014 162.279 39.421 160.802 39.891C160.813 39.579 160.808 39.265 160.788 38.95C160.448 33.713 159.424 28.286 157.745 22.82C157.427 21.785 156.939 20.826 156.311 19.977C156.275 18.93 156.065 17.883 155.674 16.878C154.229 13.162 152.471 9.363 150.447 5.585C149.097 3.065 146.68 1.292 143.872 0.761002C143.289 0.651002 142.701 0.597 142.117 0.597C139.89 0.597 137.713 1.385 135.99 2.853C135.559 3.22 131.657 6.614 127.53 12.57C127.115 13.169 126.772 13.812 126.507 14.484C126.01 15.001 125.569 15.578 125.195 16.208C123.946 18.311 122.819 20.502 121.846 22.72C121.435 23.657 121.184 24.642 121.091 25.637C120.506 26.439 120.04 27.345 119.724 28.337C119.049 30.454 118.502 32.61 118.088 34.777C116.873 34.19 115.633 33.673 114.378 33.232C113.808 33.032 113.229 32.889 112.648 32.802C112.124 32.564 111.573 32.372 110.999 32.23C108.679 31.658 106.276 31.3 103.858 31.166C103.683 31.156 103.507 31.152 103.333 31.152C102.867 31.152 102.406 31.186 101.953 31.253C101.434 31.165 100.907 31.12 100.375 31.12C100.269 31.12 100.162 31.122 100.055 31.125C98.577 31.175 97.022 31.308 95.433 31.52C95.05 31.571 94.674 31.645 94.306 31.741C93.919 31.762 93.531 31.807 93.143 31.877C90.184 32.41 87.137 33.22 84.086 34.285C83.613 34.45 83.158 34.651 82.727 34.882C82.257 34.989 81.79 35.133 81.332 35.314C80.61 35.6 79.952 35.872 79.32 36.144C79.04 36.265 78.768 36.398 78.506 36.542C78.228 36.639 77.953 36.75 77.681 36.874C76.603 37.368 75.495 37.905 74.389 38.472C74.067 38.637 73.757 38.818 73.462 39.015C73.125 39.15 72.794 39.306 72.47 39.482C64.414 43.859 58.912 48.456 58.682 48.65C55.332 51.466 54.354 56.213 56.318 60.124C57.948 63.37 61.25 65.334 64.76 65.334C65.48 65.334 66.208 65.251 66.932 65.08C68.481 64.715 70.029 64.404 71.573 64.149C68.955 66.169 66.419 68.461 63.996 70.998C63.319 71.707 62.763 72.51 62.34 73.375C61.545 73.89 60.822 74.528 60.202 75.277C57.311 78.767 54.519 82.711 51.849 87.073C50.219 85.881 48.262 85.25 46.269 85.25C45.598 85.25 44.924 85.321 44.257 85.467C41.464 86.076 39.097 87.916 37.818 90.472C37.507 91.094 35.902 94.454 34.844 99.554C34.736 100.073 34.673 100.598 34.654 101.124C34.499 101.623 34.384 102.138 34.313 102.665C34.073 104.438 33.941 106.235 33.919 108.008C33.91 108.751 33.989 109.485 34.149 110.196C34.046 110.916 34.026 111.659 34.096 112.411C34.135 112.834 34.181 113.257 34.234 113.678C33.987 113.71 33.743 113.752 33.502 113.802C33.064 113.811 32.623 113.85 32.18 113.921C30.388 114.21 28.604 114.672 26.876 115.295C26.422 115.459 25.985 115.655 25.568 115.882C25.114 116.015 24.667 116.182 24.232 116.384C23.227 116.851 22.198 117.395 21.173 118.002C20.929 118.147 20.693 118.301 20.465 118.465C20.211 118.6 19.961 118.747 19.717 118.907C17.872 120.115 16.05 121.531 14.303 123.117C14.034 123.361 13.782 123.617 13.547 123.886C13.274 124.101 13.011 124.334 12.759 124.582C12.384 124.953 12.015 125.326 11.656 125.701C11.504 125.86 11.36 126.022 11.221 126.188C11.068 126.334 10.92 126.486 10.776 126.644C10.202 127.273 9.621 127.938 9.049 128.622C8.884 128.819 8.72899 129.021 8.58299 129.228C8.40399 129.418 8.23299 129.616 8.06899 129.822C4.06299 134.86 1.782 139.265 1.535 139.751C-0.448003 143.652 0.505996 148.404 3.842 151.236C5.6 152.729 7.77699 153.483 9.95999 153.483C10.112 153.483 10.264 153.479 10.416 153.472C10.307 153.866 10.224 154.264 10.168 154.666C9.83999 155.256 9.57299 155.886 9.37599 156.548C7.60599 162.472 6.54099 169.32 6.21099 176.901C6.02399 181.2 8.76399 185.073 12.86 186.339C9.95299 198.777 8.48899 211.572 8.48899 224.63C8.48899 247.263 12.924 269.224 21.67 289.902C30.116 309.871 42.205 327.802 57.602 343.199C72.998 358.596 90.93 370.685 110.899 379.131C131.578 387.877 153.539 392.312 176.171 392.312C198.803 392.312 220.765 387.877 241.444 379.131C261.413 370.685 279.344 358.596 294.741 343.199C310.138 327.802 322.227 309.871 330.673 289.902C339.419 269.223 343.854 247.262 343.854 224.63C343.849 180.385 326.768 138.642 295.752 107.094Z" fill="#FFE5CA"/>
<path d="M334.277 218.662C334.304 219.4 334.336 220.136 334.353 220.876C311.953 218.834 286.911 217.746 262.861 217.746C246.924 217.746 231.294 218.224 216.069 219.14C218.358 216.889 218.637 213.98 214.88 209.987C212.703 207.674 209.616 206.449 206.553 205.609C195.323 202.53 182.377 203.373 173.368 195.994C172.118 194.97 170.88 193.477 171.289 191.913C171.758 190.123 173.976 189.555 175.812 189.327C188.888 187.702 202.091 187.092 215.261 187.504C216.918 179.985 205.775 176.096 203.201 168.841C200.366 160.851 208.95 152.434 206.966 144.192C206.532 142.389 205.594 140.561 206.094 138.776C207.007 135.513 211.448 135.298 214.836 135.338C224.944 135.458 235.046 131.594 242.495 124.759C241.23 120.477 235.385 120.269 230.92 120.311C226.455 120.353 220.49 117.754 221.706 113.458C222.752 109.762 228.374 109.225 229.849 105.679C231.723 101.175 225.619 97.636 220.809 96.82C212.941 95.486 204.911 95.107 196.952 95.692C194.756 93.749 196.686 89.835 199.441 88.833C202.196 87.831 205.248 88.519 208.175 88.338C211.102 88.156 214.465 86.406 214.507 83.474C214.563 79.445 208.827 78.095 206.947 74.531C206.342 73.385 206.768 71.224 207.308 69.47C208.266 69.661 187.841 66.399 176.167 66.399C157.784 66.399 140.139 69.544 123.726 75.308C124.623 74.993 125.523 74.684 126.427 74.384C131.333 74.406 136.24 74.429 141.146 74.451C147.274 74.479 155.447 76.389 155.524 82.516C139.331 85.724 123.419 90.347 108.028 96.316C109.73 100.172 114.983 100.501 119.19 100.235C129.489 99.584 139.787 98.933 150.086 98.282C151.771 98.176 153.546 98.086 155.058 98.837C159.47 101.027 157.986 107.959 154.512 111.451C146.143 119.863 132.692 119.376 121.272 122.601C119.629 123.065 117.904 123.69 116.89 125.064C115.204 127.35 116.141 130.728 114.798 133.231C111.939 138.558 100.824 137.26 101.02 143.303C101.077 145.074 102.341 146.624 102.463 148.392C102.731 152.285 97.824 154.342 96.104 157.845C93.414 163.324 99.833 169.357 105.912 169.902C111.991 170.447 118.022 168.002 124.113 168.394C125.45 170.367 124.464 173.224 122.614 174.726C120.763 176.228 118.316 176.719 115.974 177.162C108.564 178.565 101.154 179.968 93.744 181.371C90.689 181.949 87.496 182.59 85.082 184.55C82.668 186.51 81.383 190.238 83.128 192.812C90.106 193.805 97.226 192.451 104.245 193.082C111.265 193.713 118.875 197.176 120.964 203.907C121.752 206.448 121.642 209.119 121 211.715C122.319 217.739 121.405 225.443 122.348 231.217C82.266 239.501 48.218 251.216 23.217 265.272C23.261 265.439 23.307 265.605 23.352 265.772C23.74 267.217 24.142 268.656 24.57 270.083C44.101 335.318 104.576 382.866 176.166 382.866C263.556 382.866 334.399 312.023 334.399 224.633C334.4 222.632 334.35 220.644 334.277 218.662Z" fill="#0079C0"/>
<path d="M26.093 274.904C26.096 274.905 26.098 274.906 26.101 274.906C25.574 273.332 25.071 271.747 24.592 270.151C25.07 271.746 25.566 273.332 26.093 274.904Z" fill="#FFE5CA"/>
<path d="M332.792 247.187H332.793V247.185L332.792 247.187Z" fill="#FFE5CA"/>
<path d="M333.983 236.103C333.991 235.997 333.996 235.89 334.003 235.784C333.996 235.889 333.991 235.996 333.983 236.103Z" fill="#FFE5CA"/>
<path d="M179.1 263.8C216.382 263.8 246.605 233.577 246.605 196.295C246.605 159.013 216.382 128.79 179.1 128.79C141.818 128.79 111.595 159.013 111.595 196.295C111.595 233.577 141.818 263.8 179.1 263.8Z" fill="#FAAE4C"/>
<path d="M23.213 265.273C41.154 332.968 102.829 382.864 176.167 382.864C263.557 382.864 334.4 312.021 334.4 224.631C334.4 223.429 334.381 222.232 334.354 221.037C311.505 218.888 287.549 217.745 262.86 217.745C162.409 217.746 74.087 236.671 23.213 265.273Z" fill="#0079C0"/>
<mask id="mask0_653_3" style="mask-type:luminance" maskUnits="userSpaceOnUse" x="23" y="217" width="312" height="166">
<path d="M23.213 265.273C41.154 332.968 102.829 382.864 176.167 382.864C263.557 382.864 334.4 312.021 334.4 224.631C334.4 223.429 334.381 222.232 334.354 221.037C311.505 218.888 287.549 217.745 262.86 217.745C162.409 217.746 74.087 236.671 23.213 265.273Z" fill="white"/>
</mask>
<g mask="url(#mask0_653_3)">
<path d="M222.122 211.005C203.982 220.576 220.506 221.912 234.344 224.071C247.342 226.099 264.36 231.013 234.536 237.564C219.111 240.952 250.144 251.15 269.86 253.505C283.246 255.104 295.36 260.505 280.86 268.005C264.892 276.264 275.36 282.559 303.36 282.559C321.82 282.559 291.985 316.637 276.465 321.363C244.533 331.088 205.979 334.155 172.766 333.116C141.933 332.152 106.889 326.043 81.953 306.508C56.739 286.755 51.394 254.047 76.355 231.947C98.902 211.984 131.189 200.533 160.563 196.178C175.959 193.896 189.262 192.334 202.661 199.796C207.15 202.296 233.934 204.773 222.122 211.005Z" fill="#098DCE"/>
</g>
<path d="M334.354 221.038C333.442 180.14 317.018 143.068 290.726 115.482C267.045 124.105 250.782 150.647 234.818 153.499C215.326 156.981 209.185 170.577 204.783 181.15C200.381 191.722 189.667 194.975 171.986 201.481C158.858 206.311 154.25 217.415 151.863 225.912C185.983 220.655 223.489 217.746 262.861 217.746C287.55 217.746 311.506 218.89 334.354 221.038Z" fill="#0A3454"/>
<path d="M314.78 300.988C303.596 300.418 289.66 302.962 277.499 304.764C255.541 308.017 235.798 304.788 234.819 299.778C233.839 294.768 247.25 296.729 261.36 291.457C269.765 288.317 261.234 276.299 261.234 276.299C246.595 255.154 191.787 247.851 171.986 229.943C152.185 212.035 117.67 212.038 106.715 202.292C95.76 192.546 76.625 183.587 60.359 178.708C50.94 175.882 40.974 168.969 30.148 163.578C22.283 182.365 17.934 202.989 17.934 224.63C17.934 312.02 88.777 382.863 176.167 382.863C235.866 382.865 287.835 349.8 314.78 300.988Z" fill="#0D3B6C"/>
<path d="M321.281 287.787C299.107 286.79 271.099 298.611 259.993 300.305C244.991 302.594 217.296 300.901 194.772 284.67C172.249 268.439 115.918 251.857 100.42 246.705C84.921 241.554 63.579 222.284 56.047 212.317C49.791 204.038 34.694 201.753 19.838 200.05C18.588 208.061 17.935 216.27 17.935 224.631C17.935 312.021 88.778 382.864 176.168 382.864C241.104 382.865 296.894 343.743 321.281 287.787Z" fill="#0A3454"/>
<path d="M184.179 113.828L191.484 112.737C190.596 108.025 189.285 103.911 187.659 100.303H184.179L187.095 99.088C186.417 97.695 185.689 96.386 184.918 95.151H180.315L182.224 91.334C178.32 86.459 173.657 83.057 168.796 80.71L164.923 79.07C162.951 78.341 160.972 77.766 159.022 77.311C159.226 77.258 159.428 77.21 159.634 77.153L160.32 74.734L162.797 76.154C164.826 75.428 166.909 74.518 169.03 73.391L172.362 71.45C175.977 69.163 179.671 66.216 183.36 62.439L182.693 57.663L187.122 58.285C189.384 55.603 191.634 52.592 193.853 49.206C193.853 49.206 191.728 48.391 188.19 47.692L185.09 53.562L185.141 47.184C183.237 46.925 181.085 46.739 178.748 46.71L175.566 46.77C174.072 46.846 172.523 46.99 170.931 47.225L169.628 50.723L167.392 47.886C162.508 48.994 157.342 51.001 152.26 54.385L151.635 58.082L149.21 57.178C149.602 55.992 149.97 54.77 150.275 53.469L150.912 50.214C151.246 48.085 151.445 45.82 151.47 43.419L147.858 39.551L151.361 39.564C151.083 35.295 150.264 30.642 148.715 25.595L144.203 23.894L146.87 20.303C145.599 17.033 144.032 13.616 142.121 10.047C142.121 10.047 138.845 12.837 135.301 17.952L135.074 23.443L133.323 21.033C132.338 22.691 131.378 24.522 130.502 26.517L128.729 31.207C127.945 33.666 127.324 36.312 126.955 39.137L129.051 43.266L126.619 42.97C126.582 43.804 126.571 44.653 126.581 45.514L126.785 49.33C127.035 51.974 127.529 54.731 128.301 57.587C126.945 55.204 125.504 53.115 123.992 51.298L122.093 54.011L122.839 49.98C121.884 48.94 120.906 47.996 119.905 47.15L116.277 44.535C114.635 43.539 112.954 42.747 111.246 42.146L108.738 45.61V41.404C106.951 40.963 105.145 40.701 103.335 40.6L100.374 40.569C99.139 40.611 97.907 40.723 96.683 40.886L95.782 43.035L94.817 41.176C92.209 41.646 89.652 42.35 87.198 43.206L84.815 44.097C84.221 44.332 83.634 44.574 83.056 44.822L81.613 45.464C80.609 45.924 79.636 46.399 78.694 46.881L79.659 49.701L76.979 47.783C69.669 51.755 64.76 55.881 64.76 55.881C94.095 48.959 115.604 60.948 126.924 70.007C122.644 67.518 117.361 65.096 111.443 63.761L110.032 68.197L107.302 63.026C101.947 62.346 96.183 62.658 90.254 64.619L89.775 68.86L85.915 66.352C84.596 66.968 83.272 67.669 81.944 68.468L80.809 69.18C77.479 71.32 74.139 74.055 70.827 77.522L76.359 82.417L67.477 81.304C62.88 86.853 58.37 93.898 54.055 102.713L51.258 102.828L51.974 99.866C50.306 98.154 48.414 96.428 46.266 94.699C46.266 94.699 44.954 97.321 44.093 101.472L45.413 104.976L43.673 103.93C43.497 105.232 43.382 106.636 43.364 108.12L43.501 111.533C43.664 113.284 43.979 115.109 44.499 116.978L46.913 119.009L45.309 119.471C45.508 120.004 45.727 120.54 45.962 121.076L47.106 123.415C47.967 125.007 49.01 126.604 50.255 128.19C48.77 127.056 47.311 126.13 45.879 125.393L45.41 127.6L44.805 124.874C43.929 124.476 43.064 124.144 42.212 123.88L39.241 123.206C37.946 123.018 36.681 122.969 35.45 123.047L34.799 125.887L33.68 123.25C32.442 123.45 31.239 123.765 30.078 124.184L29.555 128.114L28.213 124.953C27.449 125.308 26.707 125.706 25.983 126.134L24.89 126.813C23.38 127.802 21.963 128.924 20.652 130.114L21.584 132.31L19.395 131.308C19.085 131.614 18.781 131.921 18.485 132.231L17.751 133.018C17.244 133.574 16.76 134.131 16.298 134.684L17.654 136.196L15.463 135.706C11.936 140.143 9.95599 144.037 9.95599 144.037C26.51 131.888 43.19 133.681 52.7 136.349C49.354 135.927 45.395 135.815 41.329 136.553L41.625 139.711L38.536 137.195C34.997 138.194 31.465 139.924 28.269 142.732L29.097 145.519L26.009 144.974C25.346 145.712 24.702 146.503 24.082 147.358L23.56 148.106C22.041 150.334 20.675 152.939 19.521 155.995L24.293 157.592L18.426 159.258C16.946 164.211 15.959 170.164 15.648 177.316C15.648 177.316 18.097 173.007 22.85 167.141L22.36 163.489L24.645 164.985C26.696 162.587 29.089 160.005 31.817 157.397L33.452 155.868C34.391 155.01 35.367 154.152 36.378 153.301L37.409 152.445C39.93 150.383 42.662 148.369 45.601 146.486L44.41 143.323L48.209 144.885C51.067 143.203 54.118 141.67 57.331 140.323C56.521 141.188 55.543 142.356 54.557 143.837L55.774 146.705L52.74 146.986C51.766 148.951 50.905 151.26 50.347 153.911L51.597 155.082L49.963 156.138C49.768 157.593 49.668 159.138 49.688 160.774L52.208 163.353L49.822 163.398C50.077 166.302 50.706 169.458 51.84 172.872L54.939 173.961L53.178 176.448C54.094 178.656 55.214 180.959 56.571 183.36C56.571 183.36 65.221 175.649 66.476 163.063C70.278 179.113 74.543 201.415 76.774 227.52C75.714 226.397 74.758 225.12 73.907 223.856C71.515 220.305 69.017 216.303 65.071 215.129C68.474 222.2 72.601 228.873 77.346 234.999C77.367 235.308 77.388 235.616 77.408 235.926C73.635 232.998 69.754 230.186 65.403 228.431C66.574 231.44 67.746 234.449 68.917 237.458C67.767 236.552 66.37 236.009 64.944 235.915C66.417 238.583 68.129 241.1 70.051 243.419C66.106 240.258 61.081 238.67 56.16 239.03C59.531 242.671 63.001 246.388 67.351 248.542C72.782 251.231 79 251.207 84.985 251.134C96.461 250.993 107.937 250.851 119.412 250.71C122.04 250.678 124.741 250.63 127.175 249.57C129.609 248.51 131.748 246.187 131.895 243.384C128.322 246.46 123.664 248.061 119.082 247.788C120.884 246.485 122.687 245.183 124.489 243.88C122.111 244.989 119.53 245.601 116.935 245.671C122.526 241.734 127.823 237.32 132.759 232.485C126.888 233.967 121.219 236.362 115.987 239.57C117.247 236.682 118.31 233.695 119.163 230.642C116.757 231.329 114.351 232.017 111.945 232.704C113.568 228.18 114.486 223.369 114.65 218.528C113.667 219.069 112.755 219.693 111.878 220.358C116.742 167.792 128.987 123.338 137.183 98.119C137.14 100.674 137.326 103.442 137.849 106.378L140.194 107.285L138.551 109.62C139.086 111.707 139.799 113.866 140.726 116.081L142.351 119.579C144.294 123.391 146.887 127.34 150.306 131.363L155.123 131.141L154.094 135.494C156.555 137.995 159.345 140.514 162.512 143.035C162.512 143.035 164.417 139.177 165.649 133.077L163.685 127.944L166.247 129.465C166.496 127.553 166.654 125.491 166.669 123.312L161.801 119.296L166.442 118.303C166.189 115.735 165.713 113.058 164.935 110.318L163.727 106.665C163.431 105.884 163.106 105.1 162.756 104.313L161.059 100.888C158.839 96.834 155.823 92.759 151.805 88.798L151.975 88.634C152.265 88.877 152.56 89.117 152.847 89.361L156.208 92.341C159.976 95.813 163.41 99.42 166.529 103.045L169.364 102.241L167.801 104.546C169.045 106.035 170.237 107.523 171.376 109.004H174.838L173.349 111.631C176.626 116.096 179.428 120.439 181.78 124.429L185.464 122.85L183.824 128.004C189.197 137.697 191.638 144.551 191.638 144.551C193.014 134.134 193.107 125.278 192.231 117.74L184.179 113.828ZM70.84 140.63C70.93 140.654 71.018 140.68 71.108 140.704L71.112 140.722C71.021 140.691 70.932 140.66 70.84 140.63ZM83.692 168.595L86.653 167.174L87.167 170.178C89.376 171.091 91.796 171.928 94.453 172.667C94.453 172.667 94.621 169.74 93.77 165.587L91.172 162.89L93.184 163.162C92.831 161.897 92.381 160.561 91.811 159.191L87.689 157.968L90.335 156.11C89.493 154.567 88.482 153.015 87.264 151.503L85.534 149.534C85.141 149.123 84.728 148.718 84.299 148.318L82.324 146.622C79.855 144.672 76.867 142.929 73.297 141.515L73.365 141.355C73.611 141.43 73.86 141.502 74.105 141.579L77.006 142.553C80.293 143.727 83.407 145.075 86.327 146.518L87.524 147.12C88.7 147.722 89.844 148.339 90.952 148.964L93.123 148.042L92.889 150.086C96.133 152.014 99.046 153.992 101.583 155.868L103.473 153.897L103.817 157.566C104.633 158.203 105.395 158.82 106.111 159.412C101.046 181.379 97.308 202.369 94.748 218.616C94.207 217.427 93.666 216.237 93.125 215.048C92.41 217.204 91.695 219.359 90.979 221.515C90.305 219.89 89.352 218.381 88.175 217.075C87.917 216.788 87.403 216.53 87.213 216.867C87.422 218.533 87.631 220.199 87.841 221.865C85.159 204.698 80.813 182.214 74.206 161.569L77.219 161.604L75.563 163.323C77.8 165.196 80.477 166.983 83.692 168.595ZM125.142 81.191V85.764L120.882 84.404C118.439 86.501 115.952 89.127 113.677 92.388L114.694 94.688L111.881 95.177C110.783 97.032 109.761 99.062 108.85 101.284L107.526 104.906C106.205 108.975 105.245 113.601 104.819 118.864L108.382 122.113L104.577 124.463C104.549 127.971 104.741 131.726 105.197 135.748C105.197 135.748 108.594 134.598 113.131 131.778C111.265 138.443 109.524 145.16 107.905 151.831C107.4 150.808 106.886 149.821 106.358 148.892L100.267 148.587L104.558 145.958C102.747 143.239 100.83 141.009 98.849 139.179L98.172 138.567C97.376 137.874 96.571 137.247 95.759 136.678L92.872 137.903L93.053 135.001C89.307 132.983 85.477 132.091 81.804 131.913L79.36 135.059L78.939 131.916C77.503 131.984 76.104 132.151 74.754 132.387C74.873 132.295 74.992 132.217 75.111 132.122L76.828 130.653C77.907 129.658 78.971 128.533 80.001 127.261L79.709 123.667L81.574 125.157C83.232 122.76 84.764 119.929 86.072 116.579L84.383 113.762L87.326 112.973C88.031 110.689 88.641 108.202 89.13 105.488C89.13 105.488 87.581 105.543 85.176 106.046L84.795 110.552L83.129 106.539C81.866 106.883 80.467 107.34 78.994 107.943L77.014 108.828C76.097 109.273 75.165 109.776 74.229 110.347L74.343 112.888L72.186 111.704C69.418 113.699 66.713 116.332 64.427 119.808L63.258 122.371C63.188 121.523 63.094 120.659 62.939 119.762L62.472 117.551C62.115 116.127 61.637 114.654 61.013 113.141L57.718 111.677L59.919 110.753C58.665 108.262 57.001 105.683 54.833 103.054C57.124 101.442 62.024 98.169 68.935 94.496L70.368 89.281L72.597 92.612C76.743 90.548 81.458 88.432 86.639 86.473L89.725 85.345C91.487 84.724 93.297 84.125 95.151 83.555L95.096 80.771L97.035 82.99C101.625 81.649 106.47 80.496 111.521 79.637L111.725 74.679L115.963 78.969C120.806 78.333 125.818 77.991 130.951 78.016C129.354 78.717 127.344 79.741 125.142 81.191Z" fill="#0A3454"/>
<path d="M87.328 112.972L84.385 113.761L85.408 115.468C92.932 109.202 101.113 103.701 109.829 99.078C110.476 97.701 111.161 96.397 111.883 95.177L114.696 94.688L113.869 92.819C104.908 97.071 96.446 102.207 88.599 108.12C88.22 109.829 87.798 111.45 87.328 112.972Z" fill="#FAAE4C"/>
<path d="M57.331 140.32C57.299 140.334 57.268 140.348 57.235 140.362C57.17 140.454 57.108 140.547 57.043 140.639C57.139 140.534 57.239 140.418 57.331 140.32Z" fill="#FAAE4C"/>
<path d="M54.672 144.104C54.04 145.054 53.419 146.011 52.81 146.976L55.775 146.701L54.672 144.104Z" fill="#FAAE4C"/>
<path d="M176.167 78.82C172.366 78.82 168.599 78.967 164.871 79.254L163.802 83.144C164.051 83.122 164.3 83.098 164.55 83.077L168.795 80.709C169.997 81.29 171.187 81.936 172.357 82.652C173.623 82.618 174.893 82.6 176.167 82.6C254.484 82.6 318.199 146.315 318.199 224.632C318.199 302.949 254.484 366.665 176.167 366.665C97.85 366.665 34.135 302.949 34.135 224.632C34.135 201.373 39.755 179.403 49.707 160.006C49.722 158.657 49.8 157.356 49.964 156.134L51.598 155.079L50.348 153.908C50.871 151.425 51.664 149.255 52.562 147.373C38.5 169.789 30.355 196.275 30.355 224.633C30.355 305.034 95.766 370.446 176.167 370.446C256.568 370.446 321.979 305.035 321.979 224.633C321.979 144.231 256.568 78.82 176.167 78.82Z" fill="#FAAE4C"/>
<path d="M132.585 273.957V272.393H143.507V273.957H138.928V286.955H137.165V273.957H132.585ZM147.992 272.393V286.955H146.229V272.393H147.992ZM151.528 272.393H153.633L158.582 284.481H158.753L163.702 272.393H165.807V286.955H164.157V275.891H164.015L159.464 286.955H157.871L153.32 275.891H153.178V286.955H151.528V272.393ZM169.343 286.955V272.393H178.131V273.957H171.106V278.878H177.676V280.442H171.106V285.391H178.245V286.955H169.343ZM186.145 273.957V272.393H197.067V273.957H192.488V286.955H190.725V273.957H186.145ZM211.47 279.674C211.47 281.21 211.193 282.537 210.638 283.656C210.084 284.775 209.323 285.638 208.356 286.244C207.389 286.851 206.284 287.154 205.042 287.154C203.8 287.154 202.696 286.851 201.729 286.244C200.761 285.638 200.001 284.775 199.446 283.656C198.891 282.537 198.614 281.21 198.614 279.674C198.614 278.138 198.891 276.811 199.446 275.692C200.001 274.573 200.761 273.71 201.729 273.104C202.696 272.497 203.8 272.193 205.042 272.193C206.284 272.193 207.389 272.497 208.356 273.104C209.323 273.71 210.084 274.573 210.638 275.692C211.193 276.811 211.47 278.138 211.47 279.674ZM209.764 279.674C209.764 278.413 209.553 277.349 209.131 276.481C208.714 275.614 208.147 274.957 207.431 274.512C206.72 274.066 205.924 273.843 205.042 273.843C204.16 273.843 203.362 274.066 202.646 274.512C201.935 274.957 201.368 275.614 200.946 276.481C200.529 277.349 200.321 278.413 200.321 279.674C200.321 280.935 200.529 281.999 200.946 282.867C201.368 283.734 201.935 284.391 202.646 284.836C203.362 285.282 204.16 285.505 205.042 285.505C205.924 285.505 206.72 285.282 207.431 284.836C208.147 284.391 208.714 283.734 209.131 282.867C209.553 281.999 209.764 280.935 209.764 279.674Z" fill="#FFE5CA"/>
<path d="M86.9334 302.12V298.678H110.964V302.12H100.889V330.718H97.0087V302.12H86.9334ZM116.952 330.718V298.678H127.778C130.281 298.678 132.336 299.105 133.942 299.961C135.548 300.805 136.737 301.968 137.509 303.449C138.281 304.931 138.667 306.615 138.667 308.503C138.667 310.391 138.281 312.065 137.509 313.525C136.737 314.985 135.554 316.132 133.958 316.967C132.362 317.791 130.323 318.203 127.841 318.203H119.08V314.698H127.716C129.426 314.698 130.803 314.448 131.846 313.947C132.899 313.447 133.661 312.737 134.13 311.819C134.61 310.891 134.85 309.786 134.85 308.503C134.85 307.22 134.61 306.099 134.13 305.139C133.65 304.18 132.884 303.439 131.83 302.918C130.777 302.386 129.384 302.12 127.653 302.12H120.832V330.718H116.952ZM132.033 316.325L139.918 330.718H135.413L127.653 316.325H132.033ZM146.446 330.718H142.379L154.144 298.678H158.149L169.913 330.718H165.846L156.271 303.747H156.021L146.446 330.718ZM147.948 318.203H164.344V321.644H147.948V318.203ZM173.207 298.678L182.719 325.649H183.094L192.606 298.678H196.674L184.909 330.718H180.904L169.139 298.678H173.207ZM201.665 330.718V298.678H221.002V302.12H205.545V312.946H220V316.388H205.545V327.277H221.252V330.718H201.665ZM227.995 330.718V298.678H231.875V327.277H246.769V330.718H227.995Z" fill="#FFE5CA"/>
<path d="M126.945 279.661H97.163V282.764H126.945V279.661Z" fill="#FFE5CA"/>
<path d="M253.963 279.661H224.431V282.764H253.963V279.661Z" fill="#FFE5CA"/>
</g>
<defs>
<clipPath id="clip0_653_3">
<rect width="344" height="393" fill="white"/>
</clipPath>
</defs>
</svg>
