<svg width="86" height="100" viewBox="0 0 86 100" fill="none" xmlns="http://www.w3.org/2000/svg">
<path d="M65.9838 29.6635L65.0663 12.0362C64.5283 5.31109 59.0335 0.175215 52.2874 0.0892828L45.2936 0.0011154C45.2389 0.0011154 45.1842 0 45.1284 0C38.4225 0 32.7547 5.19279 32.1899 11.8922L31.2043 29.6535C31.115 30.7081 31.8986 31.6344 32.9534 31.7237C33.008 31.7281 33.0627 31.7304 33.1163 31.7304C34.1019 31.7304 34.939 30.9748 35.0238 29.9749L36.0094 12.2136C36.4067 7.49735 40.3624 3.83238 45.1105 3.83238C45.1552 3.83238 45.1998 3.83238 45.2445 3.83349L52.2383 3.92166C56.9931 3.98192 60.8662 7.60226 61.2457 12.3408L62.1632 29.966C62.2424 30.9659 63.0729 31.7315 64.0618 31.7315C64.1153 31.7315 64.17 31.7293 64.2247 31.7248C65.2795 31.6411 66.0675 30.7182 65.9838 29.6635Z" fill="#2A3547"/>
<path d="M19.574 24.9283L10.5331 86.8534C9.54419 93.6253 14.8258 99.6931 21.7081 99.6931H73.0491C80.0195 99.6931 87.0133 95.9891 85.8782 89.1513L73.9297 24.8502C73.6083 22.9161 71.9262 21.4966 69.9551 21.4966H23.5609C21.5596 21.4988 19.8619 22.9585 19.574 24.9283Z" fill="#456FE7"/>
<path d="M9.16024 24.8134L0.119366 87.0878C-0.869549 93.8977 4.41211 100 11.2943 100L74.1496 99.6842C74.1496 99.6842 70.2564 98.653 68.6414 90.5742C65.8845 76.7915 63.5171 24.7364 63.5171 24.7364C63.1956 22.7912 61.5136 21.3649 59.5425 21.3649H13.1483C11.1459 21.3638 9.44821 22.8324 9.16024 24.8134Z" fill="#5D87FF"/>
<path d="M55.57 29.9693L54.6526 12.3419C54.1146 5.61687 48.6197 0.480997 41.8737 0.395065L34.8798 0.306902C34.8252 0.306902 34.7705 0.305786 34.7158 0.305786C28.0099 0.305786 22.342 5.49858 21.7773 12.198L20.7917 29.9593C20.7024 31.0139 21.486 31.9402 22.5407 32.0295C22.5954 32.0339 22.6501 32.0362 22.7037 32.0362C23.6892 32.0362 24.5264 31.2806 24.6112 30.2807L25.5968 12.5194C25.9941 7.80313 29.9498 4.13704 34.6979 4.13704C34.7426 4.13704 34.7872 4.13704 34.8318 4.13816L41.8257 4.22632C46.5816 4.28659 50.4536 7.90692 50.8331 12.6455L51.7506 30.2706C51.8298 31.2706 52.6602 32.0362 53.6491 32.0362C53.7027 32.0362 53.7574 32.0339 53.8121 32.0295C54.8658 31.9469 55.6538 31.0239 55.57 29.9693Z" fill="#2A3547"/>
<path d="M52.2138 65.0444L28.2677 66.253C29.3627 70.4938 33.1677 72.9312 38.542 72.66C40.9573 72.5384 42.9218 71.9837 44.6496 70.9681C46.3885 69.9459 48.6119 70.1668 49.9893 71.5183C51.7494 73.247 51.4749 76.1386 49.3129 77.5336C46.4321 79.3918 42.8046 80.4609 38.4884 80.6796C26.2966 81.2946 18.1699 74.2023 17.9031 63.954C17.6352 53.6421 25.5041 45.8066 36.2538 45.2642C46.6095 44.7419 54.7832 51.1266 55.0722 62.2063C55.0722 62.2142 55.0722 62.222 55.0722 62.2298C55.1057 63.7141 53.8009 64.964 52.2138 65.0444ZM27.9842 60.4319L45.355 59.5547C44.5212 55.2358 41.1035 52.5863 36.515 52.8185C31.8629 53.0539 28.5903 55.9768 27.9842 60.4319Z" fill="white"/>
<path opacity="0.2" d="M68.7753 27.0186C68.7753 27.0186 74.4655 78.7914 74.2635 84.1437C74.0614 89.4961 73.4554 97.7769 73.4554 97.7769C73.4554 97.7769 76.3842 87.6781 77.7983 87.9806C79.2125 88.283 85.2051 90.303 85.2051 90.303C85.2051 90.303 77.7157 84.7921 76.4355 80.2042C75.8283 78.0347 68.7753 27.0186 68.7753 27.0186Z" fill="#456FE7"/>
</svg>
